# xmcd
#
# Track frame offsets:
#	150
#	20589
#	39230
#	56962
#	76073
#	94686
#	118170
#	137565
#	157848
#	177737
#
# Disc length: 2619 seconds
#
# Revision: 0
# Processed by: cddbd v1.4PL0 Copyright (c) Steve Scherf et al.
# Submitted via: EasyCDDAExtractor 5.0.4.1
#
DISCID=7c0a390a
DTITLE=Antonis Vardis - Oti Exo Sto Xarizo [CD1)
DYEAR=2003
DGENRE=greek
TTITLE0=Ypnotismena
TTITLE1=8elo Na Ma8o
TTITLE2=Paradexou
TTITLE3=Rock Mpalanta
TTITLE4=Giati
TTITLE5=Mystika
TTITLE6=Fotografia
TTITLE7=Oute Ena Vlema(etsi xafnika)
TTITLE8=Oti Exo Sto Xarizo
TTITLE9=Ola Einai Mia Ximeia
EXTD=
EXTT0=
EXTT1=
EXTT2=
EXTT3=
EXTT4=
EXTT5=
EXTT6=
EXTT7=
EXTT8=
EXTT9=
PLAYORDER=
